<svg fill="current-color" aria-hidden="true" style="position: absolute; width: 0; height: 0; overflow: hidden;" version="1.1" xmlns="http://www.w3.org/2000/svg" xmlns:xlink="http://www.w3.org/1999/xlink">
<defs>
<symbol id="remove" viewBox="0 0 32 32">
<path d="M4.194 5.266c-5.93 6.532-5.442 16.626 1.091 22.556s16.626 5.442 22.556-1.090c5.93-6.532 5.442-16.626-1.090-22.556s-16.626-5.442-22.556 1.090zM25.475 24.585c-4.744 5.226-12.819 5.616-18.045 0.872s-5.616-12.819-0.872-18.045c4.744-5.226 12.819-5.616 18.045-0.872s5.616 12.819 0.872 18.045z"></path>
<path d="M21.889 5.354l-6.13 6.753-6.753-6.13c-1.119-1.016-2.849-0.932-3.865 0.187s-0.932 2.849 0.187 3.865l6.753 6.13-6.13 6.753c-1.016 1.119-0.932 2.849 0.187 3.865s2.849 0.932 3.865-0.187l6.13-6.753 6.753 6.13c1.119 1.016 2.849 0.932 3.865-0.187s0.932-2.849-0.187-3.865l-6.753-6.13 6.13-6.753c1.016-1.119 0.932-2.849-0.187-3.865s-2.849-0.932-3.865 0.187z"></path>
</symbol>
<symbol id="add" viewBox="0 0 32 32">
<path d="M15.968 0.088c-8.822 0-15.968 7.146-15.968 15.968s7.146 15.968 15.968 15.968c8.822 0 15.968-7.146 15.968-15.968s-7.146-15.968-15.968-15.968zM15.968 28.83c-7.058 0-12.774-5.717-12.774-12.774s5.716-12.774 12.774-12.774 12.774 5.716 12.774 12.774c0 7.058-5.716 12.774-12.774 12.774z"></path>
<path d="M27.797 13.249h-9.12v-9.12c0-1.511-1.225-2.736-2.736-2.736s-2.736 1.225-2.736 2.736v9.12h-9.12c-1.511 0-2.736 1.225-2.736 2.736s1.225 2.736 2.736 2.736h9.12v9.12c0 1.511 1.225 2.736 2.736 2.736s2.736-1.225 2.736-2.736v-9.12h9.12c1.511 0 2.736-1.225 2.736-2.736s-1.225-2.736-2.736-2.736z"></path>
</symbol>
</defs>
</svg>